<svg width="40" height="40" viewBox="0 0 40 40" fill="none" xmlns="http://www.w3.org/2000/svg">
<rect width="40" height="40" rx="20" fill="#49495A"/>
<path d="M28.9618 20.79C28.8045 22.4922 28.1657 24.1144 27.1201 25.4668C26.0744 26.8192 24.6653 27.8458 23.0575 28.4265C21.4497 29.0073 19.7098 29.1181 18.0413 28.7461C16.3728 28.3741 14.8448 27.5345 13.636 26.3258C12.4273 25.117 11.5878 23.589 11.2157 21.9205C10.8437 20.252 10.9545 18.5121 11.5353 16.9043C12.116 15.2965 13.1426 13.8874 14.495 12.8418C15.8474 11.7961 17.4696 11.1573 19.1718 11C18.1752 12.3483 17.6957 14.0094 17.8203 15.6814C17.945 17.3534 18.6657 18.9251 19.8512 20.1106C21.0368 21.2961 22.6084 22.0168 24.2804 22.1415C25.9524 22.2662 27.6135 21.7866 28.9618 20.79Z" stroke="white" stroke-width="1.5" stroke-linecap="round" stroke-linejoin="round"/>
</svg>
