<svg width="32" height="32" viewBox="0 0 32 32" fill="none" xmlns="http://www.w3.org/2000/svg">
<path fill-rule="evenodd" clip-rule="evenodd" d="M6 4C4.89543 4 4 4.89543 4 6V26C4 27.1046 4.89543 28 6 28H26C27.1046 28 28 27.1046 28 26V6C28 4.89543 27.1046 4 26 4H6ZM14.413 13.6246C14.8827 13.3105 15.4351 13.1427 16.0002 13.1425C16.7581 13.1428 17.4848 13.4439 18.0208 13.9797C18.5568 14.5155 18.8582 15.2422 18.8588 16C18.8588 16.5651 18.6912 17.1176 18.3773 17.5875C18.0633 18.0573 17.6171 18.4236 17.095 18.6399C16.573 18.8562 15.9985 18.9129 15.4442 18.8027C14.8899 18.6925 14.3808 18.4205 13.9811 18.021C13.5814 17.6214 13.3092 17.1124 13.1988 16.5581C13.0884 16.0039 13.1449 15.4294 13.361 14.9072C13.5771 14.3851 13.9432 13.9387 14.413 13.6246ZM22.0357 9.96236C22.316 10.2426 22.5356 10.5774 22.6811 10.9461L22.6832 10.9466C23.0671 11.9151 23.0458 14.0238 23.0321 15.3909C23.0298 15.6171 23.0277 15.823 23.0277 16C23.0277 16.177 23.0298 16.383 23.0321 16.6092C23.0458 17.977 23.0671 20.0881 22.6832 21.0534C22.5378 21.4221 22.3181 21.7569 22.0379 22.0371C21.7576 22.3174 21.4228 22.5371 21.0541 22.6825C20.0866 23.0666 17.9815 23.0453 16.614 23.0314C16.3869 23.0291 16.1802 23.027 16.0024 23.027C15.8279 23.027 15.6254 23.0289 15.4032 23.0311C14.0353 23.0442 11.9178 23.0646 10.95 22.6825C10.5814 22.5371 10.2465 22.3174 9.9663 22.0371C9.68606 21.7569 9.46639 21.4221 9.32092 21.0534C8.93711 20.0814 8.9573 17.9606 8.97031 16.5939C8.9724 16.3735 8.97432 16.1727 8.97432 15.9995C8.97432 15.8258 8.97239 15.6242 8.97028 15.4029C8.95724 14.0356 8.937 11.9144 9.31878 10.9461C9.46425 10.5774 9.68392 10.2426 9.96416 9.96236C10.2444 9.68212 10.5792 9.46245 10.9479 9.31698C11.9155 8.93289 14.0214 8.95425 15.3888 8.96812C15.6158 8.97042 15.8225 8.97252 16.0002 8.97252C16.1746 8.97252 16.377 8.97057 16.5991 8.96844C17.9666 8.95529 20.0842 8.93493 21.052 9.31698C21.4206 9.46245 21.7555 9.68212 22.0357 9.96236ZM13.5597 19.6525C14.2821 20.1352 15.1314 20.3929 16.0002 20.3929C16.5773 20.3936 17.1488 20.2804 17.6821 20.0599C18.2154 19.8394 18.6999 19.5159 19.108 19.1078C19.5161 18.6998 19.8396 18.2152 20.0601 17.6819C20.2806 17.1486 20.3938 16.5771 20.3931 16C20.3931 15.1312 20.1354 14.2819 19.6527 13.5595C19.17 12.8371 18.484 12.274 17.6813 11.9415C16.8786 11.6091 15.9953 11.5221 15.1432 11.6916C14.2911 11.8611 13.5083 12.2794 12.894 12.8938C12.2796 13.5082 11.8613 14.2909 11.6918 15.143C11.5223 15.9951 11.6093 16.8784 11.9417 17.6811C12.2742 18.4838 12.8373 19.1699 13.5597 19.6525ZM20.0043 12.2757C20.173 12.3883 20.3713 12.4483 20.5741 12.4482L20.5763 12.4504C20.711 12.4503 20.8443 12.4236 20.9687 12.3719C21.093 12.3202 21.206 12.2444 21.301 12.149C21.396 12.0535 21.4712 11.9402 21.5224 11.8156C21.5735 11.691 21.5995 11.5576 21.599 11.4229C21.599 11.2201 21.5388 11.0218 21.4261 10.8532C21.3134 10.6845 21.1533 10.5531 20.9659 10.4755C20.7785 10.3979 20.5723 10.3777 20.3734 10.4173C20.1745 10.4569 19.9918 10.5546 19.8484 10.698C19.705 10.8415 19.6074 11.0242 19.5679 11.2232C19.5284 11.4221 19.5488 11.6283 19.6264 11.8156C19.7041 12.003 19.8356 12.1631 20.0043 12.2757ZM23.1268 23.125C24.1291 22.1254 24.4425 20.9088 24.5116 19.5357C24.5915 18.1193 24.5915 13.8807 24.5116 12.4707C24.4463 11.0977 24.127 9.88056 23.1268 8.87877C22.1266 7.87698 20.9106 7.56306 19.5375 7.49395C18.1227 7.41413 13.8809 7.41413 12.4661 7.49395C11.0984 7.55931 9.88289 7.87538 8.87682 8.87502C7.87074 9.87466 7.5611 11.0913 7.49199 12.4643C7.41217 13.8781 7.41217 18.1204 7.49199 19.5357C7.55735 20.9061 7.87289 22.1232 8.87682 23.125C9.88074 24.1268 11.0931 24.4407 12.4661 24.5098C13.8809 24.5897 18.1227 24.5897 19.5375 24.5098C20.909 24.4445 22.1245 24.1247 23.1268 23.125Z" fill="#49495A"/>
</svg>
