<svg width="32" height="32" viewBox="0 0 32 32" fill="none" xmlns="http://www.w3.org/2000/svg">
<path fill-rule="evenodd" clip-rule="evenodd" d="M6 4C4.89543 4 4 4.89543 4 6V26C4 27.1046 4.89543 28 6 28H26C27.1046 28 28 27.1046 28 26V6C28 4.89543 27.1046 4 26 4H6ZM23.0281 10.9657H18.7031V12.0188H23.0281V10.9657ZM15.1562 20.6188C15.5088 20.3657 15.7977 20.034 16 19.65C16.2094 19.2594 16.3125 18.7938 16.3125 18.25C16.3125 17.5813 16.1531 17.0125 15.8281 16.5375C15.5094 16.0688 15.025 15.7344 14.3656 15.5469C14.85 15.3188 15.2063 15.0282 15.4531 14.6688C15.6969 14.3094 15.8188 13.8657 15.8188 13.3282C15.8188 12.8313 15.7344 12.4125 15.5719 12.0782C15.4062 11.7407 15.1719 11.4688 14.875 11.2657C14.575 11.0625 14.2188 10.9125 13.8 10.825C13.3781 10.7375 12.9156 10.6907 12.4062 10.6907H7.375V21.35H12.55C13.0205 21.3536 13.4893 21.2937 13.9438 21.1719C14.3781 21.0625 14.7875 20.875 15.1562 20.6188ZM19.1375 18H24.7125C24.75 17.4 24.7031 16.8313 24.5688 16.2907C24.4281 15.7407 24.2062 15.2532 23.8906 14.825C23.5724 14.3954 23.1597 14.0447 22.6844 13.8C22.1906 13.5438 21.6219 13.4188 20.9656 13.4188C20.4125 13.4125 19.8656 13.5188 19.3563 13.7313C18.4031 14.1344 17.6562 14.9125 17.2969 15.8844C17.1094 16.3844 17.0125 16.9219 17.0125 17.5C17.0063 18.0594 17.1 18.6157 17.2906 19.1438C17.4632 19.6212 17.7299 20.059 18.075 20.4313C18.425 20.7938 18.85 21.075 19.3219 21.2594C19.8125 21.45 20.3594 21.55 20.9688 21.55C21.8406 21.55 22.5906 21.35 23.2031 20.9501C23.8219 20.55 24.2781 19.8875 24.5781 18.9594H22.7094C22.6406 19.1969 22.4531 19.425 22.1437 19.6407C21.8312 19.8563 21.4656 19.9657 21.0344 19.9657C20.4375 19.9657 19.9813 19.8094 19.6625 19.5C19.3469 19.1875 19.1375 18.6063 19.1375 18ZM20.0594 15.1875C20.2781 15.0719 20.5625 15.0125 20.9 15.0125C21.4219 15.0125 21.8438 15.1625 22.1063 15.4407C22.3563 15.7219 22.5438 16.1219 22.5938 16.6625H19.1406C19.1531 16.4907 19.1875 16.3219 19.2375 16.1563C19.2941 15.9575 19.3909 15.7725 19.5219 15.6125C19.6594 15.4469 19.8406 15.3032 20.0594 15.1875ZM13.5375 13.7282C13.5375 14.175 13.4062 14.5 13.1344 14.6969C12.8625 14.8969 12.5156 14.9969 12.1062 14.9938H9.72812V12.5032H11.925C12.125 12.5 12.3281 12.5188 12.5281 12.5563C12.7118 12.5838 12.8881 12.6475 13.0469 12.7438C13.2 12.8344 13.325 12.9625 13.4094 13.1157C13.5031 13.3063 13.5469 13.5157 13.5375 13.7282ZM12.2781 16.5969C12.7875 16.5969 13.1969 16.7125 13.5031 16.9469C13.8125 17.1844 13.9688 17.575 13.9688 18.1282C13.9688 18.4063 13.9219 18.6375 13.8281 18.8188C13.7312 19 13.6031 19.1407 13.4438 19.2438C13.2844 19.35 13.0969 19.425 12.8875 19.4688C12.6781 19.5125 12.4625 19.5344 12.2281 19.5344H9.72188V16.5969H12.2781Z" fill="#F8F8FB"/>
</svg>
