<svg width="32" height="32" viewBox="0 0 32 32" fill="none" xmlns="http://www.w3.org/2000/svg">
<circle cx="16" cy="16" r="8" stroke="#20202D" stroke-width="1.5"/>
<path d="M15.5791 4.47561V5.22561H17.0791V4.47561H15.5791ZM17.0791 4.47561V2.5H15.5791V4.47561H17.0791Z" fill="#20202D"/>
<path d="M15.5791 29.5L15.5791 30.25L17.0791 30.25L17.0791 29.5L15.5791 29.5ZM17.0791 29.5L17.0791 27.5244L15.5791 27.5244L15.5791 29.5L17.0791 29.5Z" fill="#20202D"/>
<path d="M29.5 16.4207L30.25 16.4207L30.25 14.9207L29.5 14.9207L29.5 16.4207ZM27.5244 16.4207L29.5 16.4207L29.5 14.9207L27.5244 14.9207L27.5244 16.4207Z" fill="#20202D"/>
<path d="M4.47559 16.4207H5.22559V14.9207H4.47559V16.4207ZM2.49999 16.4207H4.47559V14.9207H2.49999V16.4207Z" fill="#20202D"/>
<path d="M26.1729 6.88794L26.7032 6.3576L25.6426 5.29694L25.1122 5.82727L26.1729 6.88794ZM24.7759 8.2849L26.1729 6.88794L25.1122 5.82727L23.7153 7.22424L24.7759 8.2849Z" fill="#20202D"/>
<path d="M8.47759 24.5829L9.00792 24.0526L7.94727 22.9919L7.41694 23.5222L8.47759 24.5829ZM7.08064 25.9799L8.47759 24.5829L7.41694 23.5222L6.01998 24.9192L7.08064 25.9799Z" fill="#20202D"/>
<path d="M25.1122 25.5142L25.6426 26.0445L26.7032 24.9838L26.1729 24.4535L25.1122 25.5142ZM23.7153 24.1172L25.1122 25.5142L26.1729 24.4535L24.7759 23.0565L23.7153 24.1172Z" fill="#20202D"/>
<path d="M7.41694 7.81921L7.94727 8.34954L9.00792 7.28888L8.47759 6.75855L7.41694 7.81921ZM6.01998 6.42224L7.41694 7.81921L8.47759 6.75855L7.08064 5.36158L6.01998 6.42224Z" fill="#20202D"/>
</svg>
