<svg width="32" height="32" viewBox="0 0 32 32" fill="none" xmlns="http://www.w3.org/2000/svg">
<path fill-rule="evenodd" clip-rule="evenodd" d="M6 4C4.89543 4 4 4.89543 4 6V26C4 27.1046 4.89543 28 6 28H26C27.1046 28 28 27.1046 28 26V6C28 4.89543 27.1046 4 26 4H6ZM6.45633 12.3727V19.5H9.09343C9.81973 19.5 10.3797 19.3235 10.7734 18.9705C11.1671 18.6176 11.364 18.1221 11.364 17.484C11.364 17.0632 11.2689 16.7068 11.0789 16.4149C10.8888 16.123 10.6207 15.9228 10.2745 15.8142C10.5596 15.6784 10.7802 15.4816 10.9363 15.2236C11.0925 14.9589 11.1705 14.6568 11.1705 14.3175C11.1705 13.693 10.9703 13.2144 10.5698 12.8818C10.1761 12.5424 9.61609 12.3727 8.88979 12.3727H6.45633ZM9.09343 18.1764H7.9327V16.5982H9.09343C9.35137 16.5982 9.54821 16.6762 9.68397 16.8324C9.81973 16.9817 9.88761 17.1752 9.88761 17.4127C9.88761 17.6639 9.81973 17.8539 9.68397 17.9829C9.54821 18.1119 9.35137 18.1764 9.09343 18.1764ZM8.88979 15.2745H7.9327V13.6964H8.88979C9.14773 13.6964 9.34797 13.7642 9.49052 13.9C9.63306 14.029 9.70434 14.2156 9.70434 14.46C9.70434 14.6976 9.63306 14.8944 9.49052 15.0505C9.34797 15.1999 9.14773 15.2745 8.88979 15.2745ZM12.7772 19.1538C13.008 19.3778 13.2998 19.4898 13.6528 19.4898H14.6303V18.1764H14.0804C14.0329 18.1764 13.9922 18.1628 13.9583 18.1356C13.9311 18.1017 13.9175 18.061 13.9175 18.0135V11.8636H12.431V18.2782C12.431 18.6312 12.5464 18.923 12.7772 19.1538ZM16.0828 19.1131C16.4698 19.4525 16.9992 19.6222 17.6712 19.6222C18.3432 19.6222 18.8727 19.4525 19.2596 19.1131C19.6465 18.7669 19.8773 18.3359 19.9519 17.82C19.9927 17.4942 20.013 17.1955 20.013 16.924C20.013 16.6321 19.9927 16.3199 19.9519 15.9873C19.8841 15.4646 19.6533 15.0336 19.2596 14.6942C18.8727 14.3548 18.3432 14.1851 17.6712 14.1851C16.9992 14.1851 16.4698 14.3582 16.0828 14.7044C15.7027 15.0438 15.4753 15.4714 15.4007 15.9873C15.3735 16.157 15.3565 16.3165 15.3498 16.4658C15.343 16.6152 15.3396 16.7679 15.3396 16.924C15.3396 17.1955 15.3599 17.4942 15.4007 17.82C15.4685 18.3359 15.6959 18.7669 16.0828 19.1131ZM18.2618 18.1356C18.126 18.285 17.9292 18.3596 17.6712 18.3596C17.4201 18.3596 17.2232 18.285 17.0807 18.1356C16.9449 17.9795 16.8668 17.7962 16.8465 17.5858C16.8193 17.3415 16.8024 17.1175 16.7956 16.9138C16.7956 16.7034 16.8092 16.4726 16.8363 16.2215C16.8567 16.0042 16.9381 15.821 17.0807 15.6716C17.2232 15.5155 17.4201 15.4375 17.6712 15.4375C17.9292 15.4375 18.1294 15.5155 18.2719 15.6716C18.4145 15.821 18.4959 16.0042 18.5163 16.2215C18.5435 16.4726 18.557 16.7034 18.557 16.9138C18.557 17.1175 18.5401 17.3448 18.5061 17.596C18.479 17.7996 18.3975 17.9795 18.2618 18.1356ZM22.5238 21.6382C22.7139 21.6653 22.9345 21.6789 23.1856 21.6789C23.7015 21.6789 24.1427 21.5839 24.5093 21.3938C24.8758 21.2105 25.1575 20.9696 25.3543 20.6709C25.5512 20.379 25.6496 20.0702 25.6496 19.7444V14.3073H24.1223V14.6025C24.0002 14.4872 23.8373 14.3887 23.6336 14.3073C23.4368 14.2258 23.2297 14.1851 23.0125 14.1851C22.3948 14.1851 21.9299 14.331 21.6176 14.6229C21.3054 14.908 21.1255 15.3187 21.078 15.8549C21.0576 16.0518 21.044 16.2316 21.0373 16.3945C21.0305 16.5575 21.0271 16.7204 21.0271 16.8833C21.0271 17.0394 21.0305 17.2023 21.0373 17.372C21.044 17.5349 21.0576 17.7216 21.078 17.932C21.1255 18.4615 21.302 18.8721 21.6074 19.164C21.9129 19.4559 22.3134 19.6018 22.8089 19.6018C22.8971 19.6018 22.9752 19.5984 23.0431 19.5916C23.1177 19.5848 23.1856 19.5781 23.2467 19.5713L23.9289 19.1742C23.9832 19.1402 24.0307 19.1335 24.0714 19.1538C24.1122 19.1674 24.1325 19.2013 24.1325 19.2556V19.4796C24.1325 19.819 24.0443 20.0668 23.8678 20.2229C23.6981 20.379 23.4741 20.4571 23.1958 20.4571C22.9718 20.4571 22.7919 20.4503 22.6562 20.4367C22.5272 20.4232 22.3982 20.3926 22.2693 20.3451C22.1403 20.2976 21.974 20.2229 21.7703 20.1211L21.3427 21.2207C21.5871 21.3361 21.7975 21.4278 21.974 21.4956C22.1573 21.5635 22.3405 21.611 22.5238 21.6382ZM23.9187 18.156C23.783 18.285 23.5895 18.3495 23.3383 18.3495C23.0872 18.3495 22.9039 18.2952 22.7885 18.1865C22.6799 18.0712 22.6188 17.9354 22.6053 17.7793C22.5781 17.4942 22.5645 17.2057 22.5645 16.9138C22.5645 16.6152 22.5781 16.3199 22.6053 16.028C22.6188 15.8719 22.6867 15.7395 22.8089 15.6309C22.9311 15.5155 23.1076 15.4578 23.3383 15.4578C23.6166 15.4578 23.8169 15.5223 23.9391 15.6513C24.0613 15.7735 24.1223 15.9432 24.1223 16.1604V17.6367C24.1223 17.8472 24.0545 18.0202 23.9187 18.156Z" fill="#49495A"/>
</svg>
