<svg width="32" height="32" viewBox="0 0 32 32" fill="none" xmlns="http://www.w3.org/2000/svg">
<path fill-rule="evenodd" clip-rule="evenodd" d="M6 4C4.89543 4 4 4.89543 4 6V26C4 27.1046 4.89543 28 6 28H26C27.1046 28 28 27.1046 28 26V6C28 4.89543 27.1046 4 26 4H6ZM8.96498 23.0424H11.9325V13.4974H8.96498V23.0424ZM9.4944 11.9026C9.77725 12.0916 10.1098 12.1924 10.45 12.1924C11.3975 12.1924 12.1675 11.4224 12.17 10.4724C12.17 10.1323 12.0691 9.79971 11.8801 9.51686C11.6911 9.23401 11.4225 9.01355 11.1082 8.88337C10.7939 8.75319 10.4481 8.71912 10.1144 8.78549C9.78078 8.85186 9.4743 9.01567 9.23376 9.25622C8.99321 9.49677 8.8294 9.80324 8.76303 10.1369C8.69666 10.4705 8.73073 10.8164 8.86091 11.1307C8.99109 11.4449 9.21155 11.7136 9.4944 11.9026ZM20.0775 23.0424H23.0425V17.8074C23.0425 15.2374 22.49 13.2599 19.485 13.2599C18.04 13.2599 17.0725 14.0524 16.6775 14.8024H16.6375V13.4974H13.7925V23.0424H16.755V18.3199C16.755 17.0749 16.9925 15.8699 18.535 15.8699C20.0575 15.8699 20.0775 17.2924 20.0775 18.3999V23.0424Z" fill="#F8F8FB"/>
</svg>
