<svg width="28" height="14" viewBox="0 0 28 14" fill="none" xmlns="http://www.w3.org/2000/svg">
<path d="M0 10.8921V0.726141H3.55003C4.60959 0.726141 5.42654 0.968188 6.00089 1.45228C6.58513 1.92669 6.87725 2.60927 6.87725 3.5C6.87725 3.98409 6.76338 4.41494 6.53562 4.79253C6.30786 5.16044 5.98603 5.44122 5.57013 5.63486C6.07516 5.78977 6.4663 6.07538 6.74357 6.4917C7.02084 6.90802 7.15947 7.41632 7.15947 8.0166C7.15947 8.92669 6.8723 9.63347 6.29796 10.1369C5.72362 10.6404 4.90667 10.8921 3.8471 10.8921H0ZM2.15378 9.00415H3.8471C4.2234 9.00415 4.51057 8.91217 4.70862 8.72822C4.90667 8.54426 5.00569 8.27317 5.00569 7.91494C5.00569 7.57607 4.90667 7.30014 4.70862 7.08714C4.51057 6.86445 4.2234 6.75311 3.8471 6.75311H2.15378V9.00415ZM2.15378 4.86515H3.55003C3.92632 4.86515 4.21845 4.75864 4.4264 4.54564C4.63435 4.32296 4.73832 4.04219 4.73832 3.70332C4.73832 3.35477 4.63435 3.08852 4.4264 2.90456C4.21845 2.71093 3.92632 2.61411 3.55003 2.61411H2.15378V4.86515Z" fill="#F8F8FB"/>
<path d="M10.4985 10.8776C9.98361 10.8776 9.5578 10.7178 9.22112 10.3983C8.88443 10.0692 8.71609 9.65284 8.71609 9.14938V0H10.8847V8.77178C10.8847 8.83956 10.9045 8.89765 10.9441 8.94606C10.9937 8.98479 11.0531 9.00415 11.1224 9.00415H11.9245V10.8776H10.4985Z" fill="#F8F8FB"/>
<path d="M16.3607 11.0664C15.3804 11.0664 14.608 10.8243 14.0436 10.3402C13.4791 9.84647 13.1474 9.23167 13.0484 8.49585C12.989 8.03112 12.9593 7.60512 12.9593 7.21784C12.9593 6.99516 12.9642 6.77732 12.9741 6.56432C12.984 6.35131 13.0088 6.12379 13.0484 5.88174C13.1573 5.14592 13.489 4.53596 14.0436 4.05187C14.608 3.55809 15.3804 3.3112 16.3607 3.3112C17.3411 3.3112 18.1135 3.55325 18.6779 4.03734C19.2523 4.52144 19.5889 5.13624 19.688 5.88174C19.7474 6.35616 19.7771 6.80152 19.7771 7.21784C19.7771 7.60512 19.7474 8.03112 19.688 8.49585C19.579 9.23167 19.2424 9.84647 18.6779 10.3402C18.1135 10.8243 17.3411 11.0664 16.3607 11.0664ZM16.3607 9.26556C16.737 9.26556 17.0242 9.15906 17.2223 8.94606C17.4203 8.72338 17.5391 8.46681 17.5787 8.17635C17.6283 7.81812 17.653 7.49378 17.653 7.20332C17.653 6.90318 17.6332 6.574 17.5936 6.21577C17.5639 5.90595 17.4451 5.64454 17.2371 5.43154C17.0292 5.20885 16.737 5.09751 16.3607 5.09751C15.9944 5.09751 15.7072 5.20885 15.4992 5.43154C15.2913 5.64454 15.1725 5.90595 15.1427 6.21577C15.1031 6.574 15.0833 6.90318 15.0833 7.20332C15.0932 7.49378 15.118 7.81328 15.1576 8.16183C15.1873 8.46196 15.3012 8.72338 15.4992 8.94606C15.7072 9.15906 15.9944 9.26556 16.3607 9.26556Z" fill="#F8F8FB"/>
<path d="M24.4054 14C24.039 14 23.7172 13.9806 23.4399 13.9419C23.1726 13.9032 22.9052 13.8354 22.6378 13.7386C22.3804 13.6418 22.0734 13.5111 21.7169 13.3465L22.3407 11.778C22.6378 11.9232 22.8804 12.0297 23.0686 12.0975C23.2567 12.1653 23.4449 12.2089 23.633 12.2282C23.8311 12.2476 24.0935 12.2573 24.4203 12.2573C24.8263 12.2573 25.153 12.1459 25.4006 11.9232C25.6581 11.7006 25.7868 11.3472 25.7868 10.8631V10.5436C25.7868 10.4661 25.7571 10.4177 25.6977 10.3983C25.6383 10.3693 25.5689 10.379 25.4897 10.4274L24.4945 10.9938C24.4054 11.0035 24.3064 11.0131 24.1975 11.0228C24.0984 11.0325 23.9846 11.0373 23.8558 11.0373C23.1329 11.0373 22.5487 10.8292 22.1031 10.4129C21.6575 9.99654 21.4 9.41079 21.3307 8.6556C21.301 8.35546 21.2812 8.08921 21.2713 7.85685C21.2614 7.6148 21.2564 7.38243 21.2564 7.15975C21.2564 6.92739 21.2614 6.69502 21.2713 6.46266C21.2812 6.23029 21.301 5.97372 21.3307 5.69295C21.4 4.92808 21.6624 4.34232 22.1179 3.93569C22.5735 3.51936 23.2518 3.3112 24.1529 3.3112C24.4698 3.3112 24.7718 3.36929 25.059 3.48548C25.356 3.60166 25.5937 3.74205 25.7719 3.90664V3.48548H28V11.2407C28 11.7054 27.8564 12.1459 27.5692 12.5622C27.2821 12.9882 26.8711 13.332 26.3364 13.5934C25.8017 13.8645 25.158 14 24.4054 14ZM24.6282 9.25104C24.9946 9.25104 25.2768 9.15906 25.4749 8.9751C25.6729 8.78147 25.7719 8.53458 25.7719 8.23444V6.12863C25.7719 5.81881 25.6828 5.57676 25.5046 5.40249C25.3263 5.21853 25.0342 5.12656 24.6282 5.12656C24.2915 5.12656 24.0341 5.20885 23.8558 5.37344C23.6776 5.52835 23.5786 5.71715 23.5587 5.93983C23.5191 6.35615 23.4993 6.77732 23.4993 7.20332C23.4993 7.61964 23.5191 8.03112 23.5587 8.43776C23.5786 8.66044 23.6677 8.85408 23.8261 9.01867C23.9945 9.17358 24.2618 9.25104 24.6282 9.25104Z" fill="#F8F8FB"/>
</svg>
