<svg width="20" height="14" viewBox="0 0 20 14" fill="none" xmlns="http://www.w3.org/2000/svg">
<path d="M13.0584 0.354532H18.044V1.71223H13.0584V0.354532ZM9.94238 11.5505C9.70919 12.0456 9.3762 12.4731 8.96976 12.7994C8.54469 13.1298 8.07278 13.3715 7.57206 13.5125C7.04819 13.6695 6.50777 13.7468 5.96543 13.7422H0V0H5.79972C6.3869 0 6.92004 0.0604312 7.40635 0.173237C7.88906 0.286043 8.29973 0.479424 8.64555 0.741295C8.98777 1.00317 9.25794 1.35367 9.44887 1.78878C9.63619 2.21986 9.73345 2.75971 9.73345 3.40029C9.73345 4.09324 9.59296 4.66532 9.31198 5.12863C9.0274 5.59194 8.61673 5.96662 8.05837 6.26072C8.81846 6.50245 9.37682 6.93353 9.74426 7.53784C10.1189 8.15022 10.3026 8.88345 10.3026 9.74561C10.3026 10.4466 10.1837 11.0469 9.94238 11.5505ZM19.9856 9.42331H13.5591C13.5591 10.2049 13.8005 10.9542 14.1643 11.3571C14.5317 11.756 15.0577 11.9574 15.7457 11.9574C16.2428 11.9574 16.6643 11.8164 17.0245 11.5384C17.3812 11.2604 17.5973 10.9663 17.6765 10.6601H19.8307C19.4849 11.8567 18.959 12.7108 18.2457 13.2265C17.5397 13.7422 16.6751 14 15.6701 14C14.9676 14 14.3372 13.8711 13.7716 13.6253C13.2277 13.3876 12.7378 13.025 12.3343 12.5577C11.9365 12.0778 11.629 11.5133 11.4301 10.8978C11.2104 10.217 11.1023 9.49986 11.1095 8.77871C11.1095 8.03338 11.2212 7.34043 11.4373 6.69583C11.8516 5.44288 12.7126 4.43971 13.8113 3.92C14.3984 3.64604 15.0288 3.50906 15.6665 3.51712C16.4229 3.51712 17.0786 3.67827 17.6477 4.00863C18.1957 4.3241 18.6714 4.77622 19.0382 5.33007C19.4021 5.88201 19.6578 6.5105 19.8199 7.21957C19.9748 7.91655 20.0289 8.64978 19.9856 9.42331ZM15.5908 5.5718C15.2018 5.5718 14.8739 5.64835 14.6218 5.79741C14.3696 5.94648 14.1607 6.1318 14.0022 6.34532C13.8512 6.55149 13.7397 6.79007 13.6744 7.04633C13.6167 7.25986 13.5771 7.47741 13.5627 7.69899H17.5433C17.4856 7.00202 17.2695 6.48633 16.9813 6.12374C16.6787 5.76518 16.1924 5.5718 15.5908 5.5718ZM6.63906 5.16489C6.95246 4.91108 7.10376 4.49209 7.10376 3.91597C7.11457 3.64201 7.06414 3.37209 6.95607 3.12633C6.8588 2.92892 6.71471 2.76374 6.5382 2.64691C6.35518 2.52278 6.1519 2.44061 5.94021 2.40518C5.70967 2.35683 5.47552 2.33266 5.24497 2.33669H2.71254V5.54763H5.4539C5.9258 5.55165 6.32566 5.42273 6.63906 5.16489ZM7.06414 8.06561C6.71111 7.76345 6.23921 7.61439 5.65203 7.61439H2.70534V11.4014H5.59439C5.86456 11.4014 6.11312 11.3732 6.35448 11.3168C6.59583 11.2604 6.81197 11.1637 6.99569 11.0268C7.17941 10.8938 7.3271 10.7125 7.43878 10.4789C7.54684 10.2452 7.60088 9.94705 7.60088 9.58849C7.60088 8.8754 7.42076 8.3718 7.06414 8.06561Z" fill="#F8F8FB"/>
</svg>
