<svg width="16" height="16" viewBox="0 0 16 16" fill="none" xmlns="http://www.w3.org/2000/svg">
<path d="M3.58009 16H0.262708V5.31281H3.58009V16ZM1.9228 3.85165C1.5425 3.85165 1.17075 3.7387 0.854548 3.52708C0.538346 3.31547 0.291897 3.0147 0.146365 2.6628C0.000833186 2.3109 -0.0372447 1.92369 0.0369468 1.55011C0.111138 1.17654 0.294267 0.833392 0.563175 0.564061C0.832082 0.29473 1.17469 0.111313 1.54768 0.037005C1.92066 -0.0373033 2.30727 0.000834498 2.65862 0.146595C3.00996 0.292356 3.31026 0.539194 3.52154 0.855894C3.73282 1.17259 3.84559 1.54493 3.84559 1.92582C3.84279 2.9895 2.98201 3.85165 1.9228 3.85165ZM16 16H12.6854V10.802C12.6854 9.56193 12.6631 7.96921 10.961 7.96921C9.23668 7.96921 8.97118 9.3184 8.97118 10.7124V16H5.65939V5.31281H8.83983V6.77397H8.88454C9.32611 5.93422 10.4077 5.04689 12.0231 5.04689C15.3824 5.04689 16 7.26102 16 10.1386V16Z" fill="#F8F8FB"/>
</svg>
