<svg width="32" height="32" viewBox="0 0 32 32" fill="none" xmlns="http://www.w3.org/2000/svg">
<path d="M20 12V10.4091V9C20 6.79086 18.2091 5 16 5V5C13.7909 5 12 6.79086 12 9V10.4091V12" stroke="#7D7D90" stroke-width="2"/>
<path fill-rule="evenodd" clip-rule="evenodd" d="M8 10C6.34315 10 5 11.3431 5 13V25C5 26.6569 6.34315 28 8 28H24C25.6569 28 27 26.6569 27 25V13C27 11.3431 25.6569 10 24 10H8ZM16 22C17.6569 22 19 20.6569 19 19C19 17.3431 17.6569 16 16 16C14.3431 16 13 17.3431 13 19C13 20.6569 14.3431 22 16 22Z" fill="#7D7D90"/>
</svg>
